<svg width="17" height="16" viewBox="0 0 17 16" fill="none" xmlns="http://www.w3.org/2000/svg">
<path d="M13.5 13H3.5C3.23478 13 2.98043 12.8946 2.79289 12.7071C2.60536 12.5196 2.5 12.2652 2.5 12V5C2.5 4.73478 2.60536 4.48043 2.79289 4.29289C2.98043 4.10536 3.23478 4 3.5 4H5.5L6.5 2.5H10.5L11.5 4H13.5C13.7652 4 14.0196 4.10536 14.2071 4.29289C14.3946 4.48043 14.5 4.73478 14.5 5V12C14.5 12.2652 14.3946 12.5196 14.2071 12.7071C14.0196 12.8946 13.7652 13 13.5 13Z" stroke="#CACDD5" stroke-width="2" stroke-linecap="round" stroke-linejoin="round"/>
<path d="M8.5 10.5C9.74264 10.5 10.75 9.49264 10.75 8.25C10.75 7.00736 9.74264 6 8.5 6C7.25736 6 6.25 7.00736 6.25 8.25C6.25 9.49264 7.25736 10.5 8.5 10.5Z" stroke="#CACDD5" stroke-width="2" stroke-linecap="round" stroke-linejoin="round"/>
</svg>
